<svg width="154" height="151" viewBox="0 0 154 151" fill="none" xmlns="http://www.w3.org/2000/svg">
<g clip-path="url(#clip0_509_7054)">
<path fill-rule="evenodd" clip-rule="evenodd" d="M74.9138 10.9472C51.1523 10.9472 29.512 24.9839 19.847 46.6669C19.1879 48.1455 17.4535 48.8105 15.9731 48.1522C14.4928 47.4939 13.827 45.7615 14.4861 44.2828C25.0938 20.4851 48.8346 5.08575 74.9138 5.08575C100.993 5.08575 124.734 20.4871 135.342 44.2828C136.001 45.7614 135.335 47.4938 133.855 48.1522C132.374 48.8105 130.64 48.1456 129.981 46.667C120.316 24.9858 98.6753 10.9472 74.9138 10.9472Z" fill="#1D1D1B"/>
<path fill-rule="evenodd" clip-rule="evenodd" d="M30.8442 115.946C31.925 114.74 33.7799 114.637 34.9873 115.717C46.0325 125.593 60.6091 131.065 75.1916 131.065C89.7797 131.065 103.885 125.774 114.868 116.183C116.088 115.117 117.942 115.241 119.008 116.46C120.075 117.678 119.951 119.53 118.731 120.595C106.679 131.12 91.2005 136.927 75.1916 136.927C59.1772 136.927 43.2038 130.93 31.0733 120.084C29.866 119.005 29.7634 117.152 30.8442 115.946Z" fill="#1D1D1B"/>
<path d="M74.9138 43.8122C74.5891 43.8122 74.2664 43.7966 73.9475 43.7673L84.3832 37.7495C82.7303 41.325 79.1077 43.8122 74.9119 43.8122H74.9138ZM66.6436 39.7307C65.2939 37.9762 64.4919 35.7801 64.4919 33.4004C64.4919 31.0206 65.2958 28.8265 66.6436 27.07V39.7287V39.7307ZM73.9495 23.0335C74.2664 23.0042 74.5891 22.9885 74.9158 22.9885C79.1096 22.9885 82.7342 25.4757 84.3871 29.0512L73.9515 23.0335H73.9495Z" fill="#1D1D1B"/>
<path d="M74.9138 20.0578C67.5375 20.0578 61.5558 26.0306 61.5558 33.4004C61.5558 40.7701 67.5355 46.7429 74.9138 46.7429C82.2922 46.7429 88.2719 40.7701 88.2719 33.4004C88.2719 26.0306 82.2922 20.0578 74.9138 20.0578ZM71.0682 41.8174C70.2897 41.8174 69.5777 41.196 69.5777 40.3286V26.4722C69.5777 25.6047 70.2916 24.9833 71.0682 24.9833C71.3166 24.9833 71.5709 25.0459 71.8095 25.1846L83.8238 32.1128C84.8155 32.6853 84.8155 34.1154 83.8238 34.6879L71.8095 41.6161C71.5689 41.7548 71.3147 41.8174 71.0682 41.8174Z" fill="#1D1D1B"/>
<path fill-rule="evenodd" clip-rule="evenodd" d="M6.75825 79.7212C6.75825 62.5906 20.2775 47.6006 38.879 47.6006C48.4737 47.6006 56.4848 52.393 63.4289 58.3147C64.8147 59.4967 64.9132 61.6049 63.6368 62.908L63.6362 62.9086L58.006 68.6475C56.8634 69.8106 55.0259 69.9056 53.7675 68.8789L53.7667 68.8782C49.2137 65.1561 44.333 62.4925 38.6756 62.4925C29.2005 62.4925 21.9335 70.4835 21.9335 79.7212C21.9335 89.8054 28.8032 96.9499 38.0653 96.9499C43.5102 96.9499 48.5062 94.5476 53.163 91.0436C57.5652 87.7311 61.5569 83.5192 65.2625 79.6091C65.4829 79.3765 65.7024 79.145 65.9208 78.9148L65.9212 78.9144L74.0694 70.3358L74.0744 70.3306C74.4632 69.9313 74.8533 69.5296 75.2448 69.1265C85.2135 58.8617 96.1497 47.6006 112.58 47.6006C121.54 47.6006 129.184 50.9637 134.584 56.7005C139.978 62.4318 143.071 70.467 143.071 79.7212C143.071 96.8519 129.552 111.842 110.951 111.842C101.354 111.842 93.3408 107.047 86.3967 101.124C85.0109 99.9417 84.9125 97.8335 86.189 96.5306L91.8197 90.791C92.9623 89.6279 94.7998 89.5329 96.0582 90.5596L96.0593 90.5605C100.612 94.2844 105.495 96.9499 111.154 96.9499C120.629 96.9499 127.896 88.959 127.896 79.7212C127.896 69.6371 121.026 62.4925 111.764 62.4925C106.319 62.4925 101.323 64.8949 96.6667 68.3989C92.2644 71.7113 88.2727 75.9233 84.5671 79.8333C84.3467 80.0659 84.1273 80.2974 83.9088 80.5276L83.9084 80.5281L75.7603 89.1066L75.7552 89.1118C75.3654 89.5121 74.9745 89.9148 74.582 90.3189C64.6142 100.583 53.6802 111.842 37.2496 111.842C20.0634 111.842 6.75825 98.3043 6.75825 79.7212Z" fill="#1D1D1B"/>
<path d="M109.879 83.1091C111.744 83.1091 113.257 81.5984 113.257 79.7349C113.257 77.8714 111.744 76.3607 109.879 76.3607C108.013 76.3607 106.501 77.8714 106.501 79.7349C106.501 81.5984 108.013 83.1091 109.879 83.1091Z" fill="#1D1D1B"/>
<path d="M39.5773 83.1404C41.443 83.1404 42.9555 81.6297 42.9555 79.7661C42.9555 77.9026 41.443 76.3919 39.5773 76.3919C37.7116 76.3919 36.1992 77.9026 36.1992 79.7661C36.1992 81.6297 37.7116 83.1404 39.5773 83.1404Z" fill="#1D1D1B"/>
<path d="M71.8858 115.773L73.9319 111.646C74.3348 110.836 75.4909 110.836 75.8938 111.646L77.9399 115.773C78.2372 116.371 78.7223 116.855 79.3209 117.152L83.4521 119.196C84.2639 119.598 84.2639 120.753 83.4521 121.156L79.3209 123.199C78.7223 123.496 78.2372 123.981 77.9399 124.579L75.8938 128.705C75.4909 129.516 74.3348 129.516 73.9319 128.705L71.8858 124.579C71.5885 123.981 71.1034 123.496 70.5048 123.199L66.3736 121.156C65.5618 120.753 65.5618 119.598 66.3736 119.196L70.5048 117.152C71.1034 116.855 71.5885 116.371 71.8858 115.773Z" fill="#1D1D1B"/>
<path d="M107.602 33.6328C107.602 34.0588 107.381 34.4847 106.937 34.7055L104.899 35.7136C104.243 36.038 103.713 36.5675 103.388 37.222L102.379 39.2579C101.939 40.1449 100.673 40.1449 100.233 39.2579L99.224 37.222L99.2181 37.2122C98.0992 34.9575 98.0992 32.3082 99.2181 30.0535L99.222 30.0437L100.231 28.0078C100.671 27.1208 101.937 27.1208 102.377 28.0078L103.387 30.0437C103.711 30.6982 104.241 31.2277 104.897 31.552L106.935 32.5602C107.379 32.779 107.6 33.2069 107.6 33.6328H107.602Z" fill="#1D1D1B"/>
<path d="M42.2728 33.6328C42.2728 34.0588 42.4938 34.4847 42.9378 34.7055L44.9761 35.7136C45.6314 36.038 46.1615 36.5675 46.4862 37.222L47.4955 39.2579C47.9356 40.1449 49.2012 40.1449 49.6413 39.2579L50.6507 37.222L50.6565 37.2122C51.7754 34.9575 51.7754 32.3082 50.6565 30.0535L50.6526 30.0437L49.6433 28.0078C49.2032 27.1208 47.9376 27.1208 47.4975 28.0078L46.4881 30.0437C46.1634 30.6982 45.6333 31.2277 44.978 31.552L42.9398 32.5602C42.4958 32.779 42.2747 33.2069 42.2747 33.6328H42.2728Z" fill="#1D1D1B"/>
</g>
<defs>
<clipPath id="clip0_509_7054">
<rect width="154" height="151" fill="white"/>
</clipPath>
</defs>
</svg>
