<svg width="600" height="400" xmlns="http://www.w3.org/2000/svg">
  <rect width="600" height="400" fill="#f8f9fa"/>
  <rect x="20" y="20" width="560" height="60" rx="8" fill="url(#grad1)"/>
  <rect x="40" y="35" width="120" height="30" rx="4" fill="white" opacity="0.3"/>
  <rect x="180" y="35" width="100" height="30" rx="4" fill="white" opacity="0.3"/>
  <rect x="300" y="35" width="100" height="30" rx="4" fill="white" opacity="0.3"/>
  
  <rect x="20" y="100" width="180" height="280" rx="8" fill="white"/>
  <rect x="40" y="120" width="140" height="20" rx="4" fill="#e9ecef"/>
  <rect x="40" y="150" width="140" height="20" rx="4" fill="#e9ecef"/>
  <rect x="40" y="180" width="140" height="20" rx="4" fill="#4A90E2" opacity="0.3"/>
  <rect x="40" y="210" width="140" height="20" rx="4" fill="#e9ecef"/>
  
  <rect x="220" y="100" width="360" height="280" rx="8" fill="white"/>
  <rect x="240" y="120" width="320" height="180" rx="4" fill="#2c3e50"/>
  <circle cx="400" cy="210" r="30" fill="white" opacity="0.8"/>
  <polygon points="390,210 410,200 410,220" fill="#4A90E2"/>
  
  <rect x="240" y="320" width="100" height="40" rx="4" fill="url(#grad1)"/>
  <text x="290" y="345" font-family="Arial" font-size="14" fill="white" text-anchor="middle">Vidéos</text>
  
  <defs>
    <linearGradient id="grad1" x1="0%" y1="0%" x2="100%" y2="0%">
      <stop offset="0%" style="stop-color:#4A90E2;stop-opacity:1" />
      <stop offset="100%" style="stop-color:#7B68EE;stop-opacity:1" />
    </linearGradient>
  </defs>
</svg>
